<svg width="141" height="147" viewBox="0 0 141 147" fill="none" xmlns="http://www.w3.org/2000/svg">
<path fill-rule="evenodd" clip-rule="evenodd" d="M44 88C66.6437 88 85 68.9721 85 45.5C85 22.0279 66.6437 3 44 3C21.3563 3 3 22.0279 3 45.5C3 58.6298 8.74379 70.369 17.7688 78.1649L13 100L35.1095 86.9981C37.9721 87.6541 40.9471 88 44 88Z" fill="#C4C4C4"/>
<path d="M17.7688 78.1649L20.2113 78.6984L20.5286 77.2453L19.4031 76.2731L17.7688 78.1649ZM13 100L10.5576 99.4666L9.33722 105.054L14.2673 102.155L13 100ZM35.1095 86.9981L35.668 84.5613L34.6991 84.3392L33.8422 84.8431L35.1095 86.9981ZM82.5 45.5C82.5 67.6768 65.1791 85.5 44 85.5V90.5C68.1083 90.5 87.5 70.2674 87.5 45.5H82.5ZM44 5.5C65.1791 5.5 82.5 23.3232 82.5 45.5H87.5C87.5 20.7326 68.1083 0.5 44 0.5V5.5ZM5.5 45.5C5.5 23.3232 22.8209 5.5 44 5.5V0.5C19.8917 0.5 0.5 20.7326 0.5 45.5H5.5ZM19.4031 76.2731C10.9178 68.9434 5.5 57.8903 5.5 45.5H0.5C0.5 59.3693 6.56976 71.7946 16.1346 80.0568L19.4031 76.2731ZM15.3264 77.6315L10.5576 99.4666L15.4424 100.533L20.2113 78.6984L15.3264 77.6315ZM14.2673 102.155L36.3768 89.1531L33.8422 84.8431L11.7327 97.845L14.2673 102.155ZM44 85.5C41.1366 85.5 38.3489 85.1757 35.668 84.5613L34.5511 89.4349C37.5953 90.1326 40.7576 90.5 44 90.5V85.5Z" fill="black"/>
<path fill-rule="evenodd" clip-rule="evenodd" d="M97 129C74.3563 129 56 109.972 56 86.5C56 63.0279 74.3563 44 97 44C119.644 44 138 63.0279 138 86.5C138 99.6298 132.256 111.369 123.231 119.165L128 141L105.89 127.998C103.028 128.654 100.053 129 97 129Z" fill="#9E9C9C"/>
<path d="M123.231 119.165L120.789 119.698L120.471 118.245L121.597 117.273L123.231 119.165ZM128 141L130.442 140.467L131.663 146.054L126.733 143.155L128 141ZM105.89 127.998L105.332 125.561L106.301 125.339L107.158 125.843L105.89 127.998ZM58.5 86.5C58.5 108.677 75.8209 126.5 97 126.5V131.5C72.8917 131.5 53.5 111.267 53.5 86.5H58.5ZM97 46.5C75.8209 46.5 58.5 64.3232 58.5 86.5H53.5C53.5 61.7326 72.8917 41.5 97 41.5V46.5ZM135.5 86.5C135.5 64.3232 118.179 46.5 97 46.5V41.5C121.108 41.5 140.5 61.7326 140.5 86.5H135.5ZM121.597 117.273C130.082 109.943 135.5 98.8903 135.5 86.5H140.5C140.5 100.369 134.43 112.795 124.865 121.057L121.597 117.273ZM125.674 118.632L130.442 140.467L125.558 141.533L120.789 119.698L125.674 118.632ZM126.733 143.155L104.623 130.153L107.158 125.843L129.267 138.845L126.733 143.155ZM97 126.5C99.8634 126.5 102.651 126.176 105.332 125.561L106.449 130.435C103.405 131.133 100.242 131.5 97 131.5V126.5Z" fill="black"/>
<path d="M18.94 51.2C17.3267 51.2 16.0267 50.6733 15.04 49.62L15.76 48.36L15.84 48.18L15.98 48.26C15.9933 48.3 16.0067 48.3667 16.02 48.46C16.0467 48.5533 16.08 48.6467 16.12 48.74C16.1733 48.82 16.2533 48.9 16.36 48.98C17.1067 49.62 18.0333 49.94 19.14 49.94C19.8733 49.94 20.4867 49.7333 20.98 49.32C21.4733 48.9067 21.72 48.4 21.72 47.8C21.72 47.4133 21.64 47.0933 21.48 46.84C21.3333 46.5733 21.06 46.3133 20.66 46.06C20.26 45.8067 19.66 45.5067 18.86 45.16C17.6333 44.68 16.7533 44.1333 16.22 43.52C15.7 42.9067 15.44 42.22 15.44 41.46C15.44 40.5267 15.78 39.78 16.46 39.22C17.14 38.66 18.0667 38.38 19.24 38.38C19.92 38.38 20.5533 38.52 21.14 38.8C21.74 39.0667 22.26 39.4467 22.7 39.94L21.8 41.14L21.68 41.06C21.68 41.0333 21.6667 40.9733 21.64 40.88C21.6267 40.7867 21.5933 40.7 21.54 40.62C21.4867 40.5267 21.4133 40.4333 21.32 40.34C21.0133 40.0467 20.68 39.84 20.32 39.72C19.96 39.6 19.5267 39.54 19.02 39.54C18.38 39.54 17.86 39.72 17.46 40.08C17.0733 40.4267 16.88 40.8533 16.88 41.36C16.88 41.7467 16.96 42.0867 17.12 42.38C17.2933 42.66 17.6 42.94 18.04 43.22C18.48 43.4867 19.12 43.7867 19.96 44.12C21.1467 44.6133 21.9667 45.12 22.42 45.64C22.8733 46.16 23.1 46.8133 23.1 47.6C23.1 48.2133 22.9467 48.7933 22.64 49.34C22.3467 49.8867 21.8867 50.3333 21.26 50.68C20.6333 51.0267 19.86 51.2 18.94 51.2ZM29.44 51.2C28.08 51.2 26.9933 50.7867 26.18 49.96C25.38 49.1333 24.98 47.9667 24.98 46.46C24.98 45.46 25.1667 44.6 25.54 43.88C25.9133 43.1467 26.4133 42.5933 27.04 42.22C27.68 41.8333 28.3933 41.64 29.18 41.64C30.2867 41.64 31.18 42.0067 31.86 42.74C32.5533 43.4733 32.9 44.5533 32.9 45.98C32.9 46.1267 32.8867 46.3467 32.86 46.64H26.36C26.4133 47.76 26.7267 48.6067 27.3 49.18C27.8733 49.7533 28.6 50.04 29.48 50.04C30.44 50.04 31.2267 49.7 31.84 49.02L32.64 49.8C31.8667 50.7333 30.8 51.2 29.44 51.2ZM31.44 45.52C31.44 44.6667 31.22 43.9933 30.78 43.5C30.3533 42.9933 29.7867 42.74 29.08 42.74C28.4133 42.74 27.8333 42.9733 27.34 43.44C26.8467 43.9067 26.54 44.6 26.42 45.52H31.44ZM40.74 41.64C41.7133 41.64 42.52 41.9733 43.16 42.64L42.52 43.76L42.44 43.94L42.3 43.86C42.26 43.7133 42.2133 43.6 42.16 43.52C42.1067 43.4267 41.9933 43.3267 41.82 43.22C41.4733 42.9933 41.08 42.88 40.64 42.88C40.16 42.88 39.7067 43 39.28 43.24C38.8533 43.48 38.5067 43.8467 38.24 44.34C37.9733 44.82 37.84 45.4267 37.84 46.16V51.02H36.38V41.86H37.88L37.84 43.54C38.0933 42.94 38.48 42.4733 39 42.14C39.5333 41.8067 40.1133 41.64 40.74 41.64ZM53.1 41.86C52.8867 42.94 52.44 44.2733 51.76 45.86L49.54 51H48.42L44.8 41.86H46.24L49.06 49.02L50.54 45.64C51.1533 44.2533 51.5533 42.9933 51.74 41.86H53.1ZM59.44 51.2C58.08 51.2 56.9933 50.7867 56.18 49.96C55.38 49.1333 54.98 47.9667 54.98 46.46C54.98 45.46 55.1667 44.6 55.54 43.88C55.9133 43.1467 56.4133 42.5933 57.04 42.22C57.68 41.8333 58.3933 41.64 59.18 41.64C60.2867 41.64 61.18 42.0067 61.86 42.74C62.5533 43.4733 62.9 44.5533 62.9 45.98C62.9 46.1267 62.8867 46.3467 62.86 46.64H56.36C56.4133 47.76 56.7267 48.6067 57.3 49.18C57.8733 49.7533 58.6 50.04 59.48 50.04C60.44 50.04 61.2267 49.7 61.84 49.02L62.64 49.8C61.8667 50.7333 60.8 51.2 59.44 51.2ZM61.44 45.52C61.44 44.6667 61.22 43.9933 60.78 43.5C60.3533 42.9933 59.7867 42.74 59.08 42.74C58.4133 42.74 57.8333 42.9733 57.34 43.44C56.8467 43.9067 56.54 44.6 56.42 45.52H61.44ZM70.74 41.64C71.7133 41.64 72.52 41.9733 73.16 42.64L72.52 43.76L72.44 43.94L72.3 43.86C72.26 43.7133 72.2133 43.6 72.16 43.52C72.1067 43.4267 71.9933 43.3267 71.82 43.22C71.4733 42.9933 71.08 42.88 70.64 42.88C70.16 42.88 69.7067 43 69.28 43.24C68.8533 43.48 68.5067 43.8467 68.24 44.34C67.9733 44.82 67.84 45.4267 67.84 46.16V51.02H66.38V41.86H67.88L67.84 43.54C68.0933 42.94 68.48 42.4733 69 42.14C69.5333 41.8067 70.1133 41.64 70.74 41.64Z" fill="black"/>
<path d="M73.7 93.2C72.7667 93.2 71.9333 92.9733 71.2 92.52C70.48 92.0533 69.9 91.3467 69.46 90.4C69.0333 89.4533 68.82 88.2667 68.82 86.84C68.82 85.3067 69.0533 84.0667 69.52 83.12C69.9867 82.16 70.58 81.4733 71.3 81.06C72.02 80.6467 72.7933 80.44 73.62 80.44C74.5 80.44 75.26 80.66 75.9 81.1C76.5533 81.54 77.0467 82.14 77.38 82.9L76.18 83.46L76 83.54L75.94 83.4L75.98 83.24C75.98 83.1067 75.8867 82.92 75.7 82.68C75.3933 82.2667 75.0667 81.98 74.72 81.82C74.3733 81.6467 73.9933 81.56 73.58 81.56C72.5267 81.56 71.6933 82.02 71.08 82.94C70.48 83.8467 70.18 85.1133 70.18 86.74C70.18 87.7667 70.3333 88.68 70.64 89.48C70.9467 90.28 71.36 90.9 71.88 91.34C72.4133 91.78 73 92 73.64 92C74.1333 92 74.6067 91.8667 75.06 91.6C75.5133 91.32 75.88 90.9467 76.16 90.48L77.2 91.16C76.7867 91.84 76.3 92.3533 75.74 92.7C75.18 93.0333 74.5 93.2 73.7 93.2ZM79.58 91.84H82.28V80.86H79.7V79.7H83.74V91.84H86.42V93H79.58V91.84ZM90 91.84H92.34V85.02H90.12V83.86H93.78V91.84H95.92V93H90V91.84ZM92.98 81.94C92.7 81.94 92.46 81.84 92.26 81.64C92.06 81.44 91.96 81.2 91.96 80.92C91.96 80.6267 92.0533 80.38 92.24 80.18C92.44 79.98 92.6867 79.88 92.98 79.88C93.26 79.88 93.5 79.9867 93.7 80.2C93.9133 80.4 94.02 80.64 94.02 80.92C94.02 81.2 93.9133 81.44 93.7 81.64C93.5 81.84 93.26 81.94 92.98 81.94ZM103.44 93.2C102.08 93.2 100.993 92.7867 100.18 91.96C99.38 91.1333 98.98 89.9667 98.98 88.46C98.98 87.46 99.1667 86.6 99.54 85.88C99.9133 85.1467 100.413 84.5933 101.04 84.22C101.68 83.8333 102.393 83.64 103.18 83.64C104.287 83.64 105.18 84.0067 105.86 84.74C106.553 85.4733 106.9 86.5533 106.9 87.98C106.9 88.1267 106.887 88.3467 106.86 88.64H100.36C100.413 89.76 100.727 90.6067 101.3 91.18C101.873 91.7533 102.6 92.04 103.48 92.04C104.44 92.04 105.227 91.7 105.84 91.02L106.64 91.8C105.867 92.7333 104.8 93.2 103.44 93.2ZM105.44 87.52C105.44 86.6667 105.22 85.9933 104.78 85.5C104.353 84.9933 103.787 84.74 103.08 84.74C102.413 84.74 101.833 84.9733 101.34 85.44C100.847 85.9067 100.54 86.6 100.42 87.52H105.44ZM109.44 83.86H110.84V85.48C111.2 84.92 111.653 84.4733 112.2 84.14C112.747 83.8067 113.327 83.64 113.94 83.64C114.753 83.64 115.4 83.9533 115.88 84.58C116.373 85.1933 116.62 86.1533 116.62 87.46V93H115.22V87.5C115.22 86.5933 115.067 85.9333 114.76 85.52C114.453 85.1067 114.047 84.9 113.54 84.9C113.127 84.9 112.707 85.02 112.28 85.26C111.867 85.5 111.52 85.84 111.24 86.28C110.973 86.7067 110.84 87.1933 110.84 87.74V93H109.44V83.86ZM126.88 92.16C126 92.8133 125.033 93.14 123.98 93.14C122.967 93.14 122.247 92.8333 121.82 92.22C121.407 91.6067 121.2 90.6067 121.2 89.22C121.2 88.9933 121.213 88.6 121.24 88.04L121.42 85.04H119.4V83.86H121.5L121.64 81.42L123.24 81.16L123.44 81.14L123.46 81.26C123.367 81.3933 123.293 81.5067 123.24 81.6C123.2 81.6933 123.173 81.84 123.16 82.04L122.94 83.86H125.98V85.04H122.86L122.68 88.14C122.653 88.6733 122.64 89.0267 122.64 89.2C122.64 90.2667 122.76 90.9933 123 91.38C123.253 91.7533 123.653 91.94 124.2 91.94C124.6 91.94 124.967 91.8667 125.3 91.72C125.633 91.5733 126.013 91.34 126.44 91.02L126.88 92.16Z" fill="black"/>
</svg>
